<svg width="15" height="15" viewBox="0 0 15 15" fill="none" xmlns="http://www.w3.org/2000/svg">
<path d="M7.72119 10.4652L11.2212 6.26523H4.22119L7.72119 10.4652Z" fill="#343A40"/>
<path d="M7.72119 0.665222C3.86139 0.665222 0.721191 3.80542 0.721191 7.66522C0.721191 11.525 3.86139 14.6652 7.72119 14.6652C11.581 14.6652 14.7212 11.525 14.7212 7.66522C14.7212 3.80542 11.581 0.665222 7.72119 0.665222ZM7.72119 13.2652C4.63349 13.2652 2.12119 10.7529 2.12119 7.66522C2.12119 4.57752 4.63349 2.06522 7.72119 2.06522C10.8089 2.06522 13.3212 4.57752 13.3212 7.66522C13.3212 10.7529 10.8089 13.2652 7.72119 13.2652Z" fill="#343A40"/>
</svg>
