<svg width="20" height="21" viewBox="0 0 20 21" fill="none" xmlns="http://www.w3.org/2000/svg">
<path d="M9.96094 0.369507C7.99085 0.369507 6.06501 0.953705 4.42694 2.04823C2.78887 3.14275 1.51216 4.69844 0.758236 6.51856C0.00431575 8.33868 -0.192944 10.3415 0.191401 12.2737C0.575746 14.206 1.52443 15.9808 2.9175 17.3739C4.31056 18.767 6.08543 19.7156 8.01766 20.1C9.94989 20.4843 11.9527 20.2871 13.7728 19.5332C15.593 18.7792 17.1486 17.5025 18.2432 15.8644C19.3377 14.2264 19.9219 12.3005 19.9219 10.3304C19.9188 7.68959 18.8683 5.15779 17.001 3.29042C15.1336 1.42306 12.6018 0.372608 9.96094 0.369507ZM9.96094 19.1195C8.22263 19.1195 6.52335 18.604 5.078 17.6383C3.63265 16.6725 2.50613 15.2999 1.84091 13.6939C1.17568 12.0879 1.00163 10.3207 1.34076 8.61578C1.67989 6.91087 2.51696 5.34481 3.74614 4.11564C4.97531 2.88647 6.54137 2.04939 8.24628 1.71026C9.95119 1.37113 11.7184 1.54519 13.3244 2.21041C14.9304 2.87563 16.303 4.00215 17.2688 5.4475C18.2345 6.89286 18.75 8.59213 18.75 10.3304C18.7474 12.6607 17.8206 14.8947 16.1729 16.5424C14.5252 18.1901 12.2912 19.1169 9.96094 19.1195ZM12.7188 9.91638C12.8285 10.0262 12.8901 10.1752 12.8901 10.3304C12.8901 10.4857 12.8285 10.6346 12.7188 10.7445L8.8125 14.6508C8.70143 14.7543 8.55452 14.8106 8.40272 14.8079C8.25092 14.8052 8.10609 14.7438 7.99874 14.6364C7.89138 14.529 7.82989 14.3842 7.82721 14.2324C7.82453 14.0806 7.88088 13.9337 7.98438 13.8226L11.4756 10.3304L7.98438 6.83826C7.88088 6.72718 7.82453 6.58027 7.82721 6.42847C7.82989 6.27668 7.89138 6.13184 7.99874 6.02449C8.10609 5.91714 8.25092 5.85564 8.40272 5.85296C8.55452 5.85029 8.70143 5.90663 8.8125 6.01013L12.7188 9.91638Z" fill="#212529"/>
</svg>
