<svg width="14" height="15" viewBox="0 0 14 15" fill="none" xmlns="http://www.w3.org/2000/svg">
<path fill-rule="evenodd" clip-rule="evenodd" d="M4.22102 1.16776C4.43825 0.710023 4.90684 0.391937 5.44836 0.391937H8.55164C9.09316 0.391937 9.56097 0.710023 9.77898 1.16776C10.3089 1.17241 10.7224 1.19646 11.0917 1.34076C11.5325 1.5132 11.9159 1.80626 12.198 2.1864C12.4827 2.56966 12.6169 3.06075 12.8 3.73649L13.3757 5.84826L13.5929 6.50073L13.6115 6.524C14.3105 7.41929 13.9777 8.7506 13.3121 11.4124C12.8885 13.106 12.6774 13.9525 12.0459 14.4459C11.4144 14.9385 10.5416 14.9385 8.79602 14.9385H5.20398C3.45839 14.9385 2.5856 14.9385 1.95408 14.4459C1.32257 13.9525 1.11077 13.106 0.687947 11.4124C0.0222953 8.7506 -0.310531 7.41929 0.388481 6.524L0.407101 6.50073L0.62433 5.84826L1.19999 3.73649C1.38386 3.06075 1.51807 2.56888 1.80202 2.18563C2.08421 1.80577 2.46759 1.51299 2.90834 1.34076C3.27763 1.19646 3.69036 1.17163 4.22102 1.16776ZM4.22257 2.33303C3.70898 2.33846 3.50261 2.35786 3.33193 2.42458C3.09451 2.51743 2.88802 2.67525 2.73611 2.87998C2.59956 3.06385 2.51888 3.32065 2.29389 4.14845L1.85167 5.76913C2.64301 5.62871 3.7245 5.62871 5.20321 5.62871H8.79602C10.2755 5.62871 11.3562 5.62871 12.1476 5.76835L11.7061 4.14767C11.4811 3.31987 11.4004 3.06308 11.2639 2.87921C11.112 2.67448 10.9055 2.51665 10.6681 2.4238C10.4974 2.35708 10.291 2.33769 9.77743 2.33226C9.66727 2.56411 9.49364 2.75998 9.27669 2.89716C9.05973 3.03434 8.80832 3.1072 8.55164 3.1073H5.44836C5.19176 3.10727 4.94041 3.03452 4.72346 2.89749C4.50651 2.76045 4.33284 2.56474 4.22257 2.33303Z" fill="white"/>
</svg>
