<svg width="86" height="80" viewBox="0 0 86 80" fill="none" xmlns="http://www.w3.org/2000/svg">
<path d="M85.8578 21.4286C85.8515 15.9084 81.378 11.4349 75.8577 11.4286H33.0004C32.1233 11.4255 31.25 11.5452 30.4061 11.7843C29.8718 11.9129 15.7604 17.2329 7.39603 20.3915H7.3846C5.75436 20.8464 4.27084 21.7184 3.0803 22.9215C1.18914 24.79 0.130409 27.3416 0.143148 30.0001C0.14552 33.5147 1.99429 36.7695 5.01174 38.5716C1.99555 40.3748 0.147228 43.6289 0.143148 47.143C0.14873 50.6586 1.99995 53.913 5.01888 55.7145C1.15544 58.0171 -0.69296 62.6175 0.503326 66.9531C1.69961 71.2887 5.6456 74.2903 10.1432 74.286H53.0005C54.4785 74.2847 55.9374 73.9528 57.2705 73.3145C57.281 73.3152 57.2915 73.3152 57.3019 73.3145L80.2863 64.6817C83.5688 63.0646 85.7027 59.7804 85.8466 56.1241C85.9906 52.4678 84.1215 49.026 80.9763 47.1559C81.6892 46.7427 82.3424 46.2342 82.9177 45.6444C84.8085 43.7778 85.8682 41.2285 85.8578 38.5716C85.8453 35.0612 83.9974 31.8131 80.9863 30.0087C81.696 29.5957 82.3467 29.0888 82.9206 28.5015C84.8103 26.6344 85.869 24.0852 85.8578 21.4286ZM31.1933 14.53C31.7815 14.3656 32.3896 14.2834 33.0004 14.2857H75.8577C79.8007 14.2905 82.9959 17.4857 83.0006 21.4286C83.0094 23.3244 82.2539 25.1438 80.9049 26.4758C80.4195 26.981 79.8513 27.3994 79.2249 27.7129C79.1477 27.7544 79.082 27.7929 79.0092 27.8301C77.082 28.5444 73.6891 29.8187 68.4305 31.793L62.082 34.1772C63.5091 31.0821 63.2603 27.4729 61.4219 24.6028C59.5834 21.7328 56.4089 19.9977 53.0005 20H16.5318C23.6447 17.3215 30.6118 14.7143 31.1933 14.53ZM3.0003 30.0001C2.99216 28.1009 3.75029 26.2787 5.10317 24.9458C5.96667 24.0691 7.04954 23.4401 8.23889 23.1243C8.27461 23.1129 8.31604 23.1001 8.35746 23.0843C8.94036 22.9316 9.54062 22.8553 10.1432 22.8572H53.0005C56.9434 22.8619 60.1387 26.0571 60.1434 30.0001C60.133 32.6728 58.6415 35.1193 56.2705 36.353C56.2287 36.369 56.1877 36.3871 56.1476 36.4073C55.1708 36.8959 54.0927 37.148 53.0005 37.143H10.1432C6.20024 37.1383 3.00502 33.943 3.0003 30.0001ZM3.0003 47.143C3.00738 43.201 6.20121 40.0072 10.1432 40.0001H53.0005C56.9434 40.0049 60.1387 43.2001 60.1434 47.143C60.133 49.8157 58.6415 52.2623 56.2705 53.4959C56.2287 53.5119 56.1877 53.53 56.1476 53.5502C55.1708 54.0389 54.0927 54.2909 53.0005 54.2859H10.1432C6.20024 54.2812 3.00502 51.086 3.0003 47.143ZM10.1432 71.4288C6.19828 71.4288 3.0003 68.2308 3.0003 64.2859C3.0003 60.341 6.19828 57.1431 10.1432 57.1431H53.0005C56.9454 57.1431 60.1434 60.341 60.1434 64.2859C60.1434 68.2308 56.9454 71.4288 53.0005 71.4288H10.1432ZM83.0006 55.7145C83.0092 57.61 82.2544 59.4291 80.9063 60.7616C80.3927 61.2817 79.8025 61.7201 79.1563 62.0616L62.072 68.4688C64.2008 63.8938 62.5668 58.4496 58.2705 55.803L77.1277 48.7287C80.5156 49.3332 82.9872 52.2731 83.0006 55.7145ZM83.0006 38.5716C83.0094 40.4673 82.2539 42.2867 80.9049 43.6187C80.4195 44.1239 79.8513 44.5423 79.2249 44.8559C79.1463 44.8987 79.072 44.9373 79.0063 44.9744L62.0805 51.3216C64.1963 46.745 62.5606 41.3091 58.2705 38.6601L69.4291 34.4687C72.6891 33.2444 75.222 32.293 77.1434 31.5744C80.5254 32.1932 82.9866 35.1335 83.0006 38.5716Z" fill="#5F6F52"/>
<path d="M55.8577 30.0001C55.8577 29.2111 55.2182 28.5715 54.4292 28.5715H8.71471C7.92573 28.5715 7.28613 29.2111 7.28613 30.0001C7.28613 30.7891 7.92573 31.4287 8.71471 31.4287H54.4292C55.2182 31.4287 55.8577 30.7891 55.8577 30.0001Z" fill="#5F6F52"/>
<path d="M55.8577 47.1431C55.8577 46.3541 55.2182 45.7145 54.4292 45.7145H8.71471C7.92573 45.7145 7.28613 46.3541 7.28613 47.1431C7.28613 47.932 7.92573 48.5716 8.71471 48.5716H54.4292C55.2182 48.5716 55.8577 47.932 55.8577 47.1431Z" fill="#5F6F52"/>
<path d="M54.4292 62.8574H8.71471C7.92573 62.8574 7.28613 63.497 7.28613 64.2859C7.28613 65.0749 7.92573 65.7145 8.71471 65.7145H54.4292C55.2182 65.7145 55.8577 65.0749 55.8577 64.2859C55.8577 63.497 55.2182 62.8574 54.4292 62.8574Z" fill="#5F6F52"/>
<path d="M14.4291 0C13.6401 0 13.0005 0.639596 13.0005 1.42858V4.28573C13.0005 5.07471 13.6401 5.71431 14.4291 5.71431C15.218 5.71431 15.8576 5.07471 15.8576 4.28573V1.42858C15.8576 0.639596 15.218 0 14.4291 0Z" fill="#5F6F52"/>
<path d="M13.0005 12.8572C13.0005 13.6462 13.6401 14.2858 14.4291 14.2858C15.218 14.2858 15.8576 13.6462 15.8576 12.8572V10C15.8576 9.21107 15.218 8.57147 14.4291 8.57147C13.6401 8.57147 13.0005 9.21107 13.0005 10V12.8572Z" fill="#5F6F52"/>
<path d="M11.5719 5.71429H8.71471C7.92573 5.71429 7.28613 6.35389 7.28613 7.14287C7.28613 7.93185 7.92573 8.57145 8.71471 8.57145H11.5719C12.3608 8.57145 13.0004 7.93185 13.0004 7.14287C13.0004 6.35389 12.3608 5.71429 11.5719 5.71429Z" fill="#5F6F52"/>
<path d="M17.286 8.57145H20.1432C20.9321 8.57145 21.5717 7.93185 21.5717 7.14287C21.5717 6.35389 20.9321 5.71429 20.1432 5.71429H17.286C16.497 5.71429 15.8574 6.35389 15.8574 7.14287C15.8574 7.93185 16.497 8.57145 17.286 8.57145Z" fill="#5F6F52"/>
<path d="M83.2965 75.4188C82.736 74.8775 81.845 74.8852 81.2939 75.4362C80.7429 75.9873 80.7351 76.8783 81.2765 77.4389L83.4194 79.5817C83.9799 80.1231 84.8709 80.1154 85.422 79.5643C85.973 79.0133 85.9808 78.1223 85.4394 77.5617L83.2965 75.4188Z" fill="#5F6F52"/>
<path d="M76.9907 73.1531C77.5512 73.6945 78.4422 73.6868 78.9933 73.1357C79.5443 72.5847 79.5521 71.6937 79.0107 71.1331L76.8678 68.9903C76.3073 68.4489 75.4162 68.4566 74.8652 69.0077C74.3141 69.5587 74.3064 70.4497 74.8478 71.0103L76.9907 73.1531Z" fill="#5F6F52"/>
<path d="M74.848 79.5817C75.4058 80.1394 76.3101 80.1394 76.868 79.5817L79.0108 77.4389C79.5522 76.8783 79.5445 75.9873 78.9934 75.4362C78.4424 74.8852 77.5514 74.8775 76.9908 75.4188L74.848 77.5617C74.2903 78.1196 74.2903 79.0239 74.848 79.5817Z" fill="#5F6F52"/>
<path d="M83.4194 68.9903L81.2765 71.1331C80.9051 71.4918 80.7562 72.0229 80.8869 72.5224C81.0177 73.0219 81.4077 73.412 81.9072 73.5427C82.4067 73.6734 82.9378 73.5245 83.2965 73.1531L85.4394 71.0103C85.9808 70.4497 85.973 69.5587 85.422 69.0077C84.8709 68.4566 83.9799 68.4489 83.4194 68.9903Z" fill="#5F6F52"/>
</svg>
