<svg width="26" height="26" viewBox="0 0 26 26" fill="none" xmlns="http://www.w3.org/2000/svg">
<path fill-rule="evenodd" clip-rule="evenodd" d="M13.0011 4.91895C13.8918 4.91895 14.8053 4.94186 15.6907 4.97936L16.7366 5.02936L17.7376 5.08874L18.6751 5.15228L19.5313 5.21895C20.4606 5.29007 21.3349 5.6866 22.0006 6.33878C22.6664 6.99096 23.0807 7.85701 23.1709 8.78457L23.2126 9.22728L23.2907 10.1752C23.3636 11.1575 23.4178 12.2283 23.4178 13.2523C23.4178 14.2762 23.3636 15.3471 23.2907 16.3294L23.2126 17.2773C23.1991 17.4294 23.1855 17.5762 23.1709 17.72C23.0807 18.6477 22.6662 19.5139 22.0002 20.1661C21.3343 20.8183 20.4597 21.2147 19.5303 21.2856L18.6761 21.3512L17.7386 21.4158L16.7366 21.4752L15.6907 21.5252C14.7947 21.5641 13.898 21.5843 13.0011 21.5856C12.1043 21.5843 11.2076 21.5641 10.3116 21.5252L9.26572 21.4752L8.26468 21.4158L7.32718 21.3512L6.47093 21.2856C5.54171 21.2145 4.66734 20.818 4.00163 20.1658C3.33592 19.5136 2.92153 18.6475 2.83135 17.72L2.78968 17.2773L2.71156 16.3294C2.63191 15.3055 2.58952 14.2792 2.58447 13.2523C2.58447 12.2283 2.63864 11.1575 2.71156 10.1752L2.78968 9.22728C2.80322 9.07519 2.81676 8.92832 2.83135 8.78457C2.92149 7.85717 3.33574 6.99125 4.00123 6.33909C4.66673 5.68694 5.54086 5.2903 6.46989 5.21895L7.3251 5.15228L8.2626 5.08874L9.26468 5.02936L10.3105 4.97936C11.2069 4.94044 12.1039 4.92029 13.0011 4.91895ZM10.9178 10.7262V15.7783C10.9178 16.2596 11.4386 16.5596 11.8553 16.32L16.2303 13.7939C16.3255 13.7391 16.4046 13.6602 16.4596 13.5651C16.5146 13.47 16.5435 13.3621 16.5435 13.2523C16.5435 13.1424 16.5146 13.0345 16.4596 12.9394C16.4046 12.8443 16.3255 12.7654 16.2303 12.7106L11.8553 10.1856C11.7603 10.1307 11.6525 10.1019 11.5427 10.1019C11.433 10.1019 11.3252 10.1308 11.2301 10.1857C11.1351 10.2406 11.0562 10.3196 11.0014 10.4146C10.9466 10.5097 10.9177 10.6175 10.9178 10.7273" fill="#5F6F52"/>
</svg>
