<svg width="80" height="82" viewBox="0 0 80 82" fill="none" xmlns="http://www.w3.org/2000/svg">
<path d="M11.6957 65.8681C15.0007 69.5887 19.0339 72.6135 23.8138 74.9389C28.1461 77.0465 33.0327 78.5287 38.4865 79.3717C38.3858 72.7228 37.6977 67.0345 36.4439 62.2869C35.0916 57.1662 32.904 52.9599 29.9123 49.6203L11.6957 65.8681ZM11.6957 65.8681C8.38994 62.1435 5.86406 57.8203 4.12117 52.8834C2.54216 48.4107 1.67057 43.4739 1.52266 38.0611C8.05176 38.8152 13.5739 40.0684 18.1116 41.7999C22.9996 43.6651 26.9169 46.2796 29.9119 49.6198L11.6957 65.8681ZM31.3372 17.2182L31.3375 17.2177C32.6459 14.3705 34.1331 11.6396 35.799 9.02441C37.1281 6.9378 38.5283 5.00191 39.9988 3.21536C41.4682 5.00218 42.869 6.93837 44.2004 9.0253C45.8687 11.6401 47.3556 14.3692 48.6611 17.2131L48.6614 17.2137C49.9715 20.0645 51.0844 22.9622 52.0005 25.907C52.7994 28.4747 53.3959 30.9582 53.793 33.3582C50.6155 35.0839 47.7771 37.0169 45.2847 39.1612C43.2004 40.9544 41.4287 42.8056 39.9825 44.7179C38.5406 42.8591 36.7789 41.0413 34.7101 39.2614C32.2178 37.1172 29.38 35.156 26.2032 33.3742C26.6003 30.9692 27.1977 28.4804 27.9983 25.907C28.9144 22.9623 30.0272 20.0661 31.3372 17.2182ZM58.083 43.2785C63.0036 40.2374 69.7682 38.4263 78.4869 37.9567C78.2773 47.5586 75.543 55.8221 70.3239 62.8109C65.1761 69.7044 58.2386 74.5999 49.449 77.4859C49.2797 73.5043 48.9472 69.7747 48.4496 66.2989C47.903 62.4805 47.0705 58.8505 45.9494 55.4113C48.9314 50.4817 52.9684 46.4395 58.083 43.2785Z" stroke="#5F6F52" stroke-width="3"/>
</svg>
