<svg width="200" height="40" viewBox="0 0 200 40" fill="none" xmlns="http://www.w3.org/2000/svg">
<path d="M16.5585 9.09817C16.7053 8.80439 16.937 8.5615 17.2235 8.40099C17.51 8.24049 17.8381 8.16978 18.1653 8.19804C18.4925 8.2263 18.8036 8.35222 19.0584 8.55948C19.3131 8.76673 19.4997 9.04575 19.594 9.36034L23.3217 21.7889L26.394 15.6525C26.5301 15.3803 26.7393 15.1515 26.9982 14.9915C27.257 14.8316 27.5553 14.7468 27.8595 14.7468C28.1638 14.7468 28.4621 14.8316 28.7209 14.9915C28.9797 15.1515 29.1889 15.3803 29.325 15.6525L32.1454 21.3014H42.0547C43.53 18.2598 44.2785 14.9169 44.2412 11.5366C44.1766 5.17584 39.0735 0 32.8654 0C27.9404 0 24.6725 3.02521 22.9397 5.22295C21.211 3.02214 17.939 0 13.0141 0C6.80594 0 1.70281 5.17584 1.63829 11.5366C1.61181 13.733 1.92019 15.9207 2.55282 18.0243H12.0954L16.5585 9.09817Z" fill="#5F6F52"/>
<path d="M29.6674 23.6734L27.8557 20.0501L24.4055 26.9505C24.2694 27.2226 24.0601 27.4514 23.8013 27.6113C23.5425 27.7712 23.2442 27.8558 22.94 27.8558C22.8943 27.8558 22.8471 27.8538 22.7987 27.8497C22.4707 27.8225 22.1585 27.6971 21.9028 27.49C21.6471 27.2828 21.4596 27.0035 21.3649 26.6883L17.6372 14.2598L14.5649 20.3962C14.4294 20.6669 14.2216 20.8948 13.9646 21.0546C13.7075 21.2144 13.4112 21.2999 13.1086 21.3015H3.82504C4.78087 23.3013 6.05316 25.2696 7.64189 27.2065C9.56414 29.5497 13.0492 33.2959 21.0976 38.7595C21.6404 39.1315 22.283 39.3306 22.941 39.3306C23.599 39.3306 24.2416 39.1315 24.7844 38.7595C32.8329 33.2959 36.3179 29.5497 38.2402 27.2065C38.9325 26.3638 39.5819 25.4868 40.186 24.5787H31.1329C30.8286 24.5787 30.5304 24.494 30.2715 24.3341C30.0127 24.1742 29.8035 23.9454 29.6674 23.6734ZM44.2414 21.3015H42.055C41.5102 22.4367 40.8856 23.5318 40.186 24.5787H44.2414C44.676 24.5787 45.0928 24.406 45.4001 24.0987C45.7074 23.7915 45.88 23.3747 45.88 22.9401C45.88 22.5055 45.7074 22.0887 45.4001 21.7815C45.0928 21.4742 44.676 21.3015 44.2414 21.3015ZM1.63857 18.0244C1.204 18.0244 0.787218 18.197 0.479926 18.5043C0.172635 18.8116 0 19.2284 0 19.663C0 20.0975 0.172635 20.5143 0.479926 20.8216C0.787218 21.1289 1.204 21.3015 1.63857 21.3015H3.82504C3.31831 20.2431 2.8931 19.1475 2.5531 18.0244H1.63857Z" fill="#5F6F52"/>
<path d="M196.161 17.1765C196.161 16.9343 196.091 16.7155 195.95 16.5202C195.81 16.3249 195.548 16.1452 195.165 15.9811C194.79 15.8093 194.247 15.653 193.536 15.5124C192.896 15.3718 192.298 15.196 191.743 14.985C191.196 14.7663 190.72 14.5046 190.313 14.1999C189.915 13.8952 189.603 13.5358 189.376 13.1218C189.149 12.6999 189.036 12.2194 189.036 11.6804C189.036 11.1491 189.149 10.6491 189.376 10.1804C189.61 9.71161 189.942 9.29755 190.372 8.93817C190.81 8.57098 191.341 8.28583 191.966 8.0827C192.599 7.87177 193.31 7.7663 194.099 7.7663C195.2 7.7663 196.146 7.94208 196.935 8.29364C197.731 8.6452 198.341 9.12958 198.763 9.74677C199.192 10.3561 199.407 11.0515 199.407 11.8327H196.032C196.032 11.5046 195.962 11.2116 195.821 10.9538C195.688 10.6882 195.478 10.4811 195.188 10.3327C194.907 10.1765 194.54 10.0983 194.087 10.0983C193.712 10.0983 193.388 10.1647 193.114 10.2975C192.841 10.4225 192.63 10.5944 192.481 10.8132C192.341 11.0241 192.271 11.2585 192.271 11.5163C192.271 11.7116 192.31 11.8874 192.388 12.0436C192.474 12.1921 192.61 12.3288 192.798 12.4538C192.985 12.5788 193.228 12.696 193.524 12.8054C193.829 12.9069 194.204 13.0007 194.649 13.0866C195.563 13.2741 196.38 13.5202 197.099 13.8249C197.817 14.1218 198.388 14.528 198.81 15.0436C199.231 15.5515 199.442 16.2194 199.442 17.0475C199.442 17.61 199.317 18.1257 199.067 18.5944C198.817 19.0632 198.458 19.4733 197.989 19.8249C197.521 20.1686 196.958 20.4382 196.302 20.6335C195.653 20.821 194.923 20.9147 194.11 20.9147C192.931 20.9147 191.931 20.7038 191.11 20.2819C190.298 19.86 189.681 19.3249 189.259 18.6765C188.845 18.0202 188.638 17.3483 188.638 16.6608H191.837C191.853 17.1218 191.97 17.4929 192.188 17.7741C192.415 18.0554 192.7 18.2585 193.044 18.3835C193.396 18.5085 193.774 18.571 194.181 18.571C194.618 18.571 194.981 18.5124 195.271 18.3952C195.56 18.2702 195.778 18.1061 195.927 17.903C196.083 17.6921 196.161 17.4499 196.161 17.1765Z" fill="#5F6F52"/>
<path d="M183.833 17.1765C183.833 16.9343 183.763 16.7155 183.622 16.5202C183.481 16.3249 183.22 16.1452 182.837 15.9811C182.462 15.8093 181.919 15.653 181.208 15.5124C180.567 15.3718 179.97 15.196 179.415 14.985C178.868 14.7663 178.392 14.5046 177.985 14.1999C177.587 13.8952 177.274 13.5358 177.048 13.1218C176.821 12.6999 176.708 12.2194 176.708 11.6804C176.708 11.1491 176.821 10.6491 177.048 10.1804C177.282 9.71161 177.614 9.29755 178.044 8.93817C178.481 8.57098 179.013 8.28583 179.638 8.0827C180.271 7.87177 180.981 7.7663 181.771 7.7663C182.872 7.7663 183.817 7.94208 184.606 8.29364C185.403 8.6452 186.013 9.12958 186.435 9.74677C186.864 10.3561 187.079 11.0515 187.079 11.8327H183.704C183.704 11.5046 183.634 11.2116 183.493 10.9538C183.36 10.6882 183.149 10.4811 182.86 10.3327C182.579 10.1765 182.212 10.0983 181.759 10.0983C181.384 10.0983 181.06 10.1647 180.786 10.2975C180.513 10.4225 180.302 10.5944 180.153 10.8132C180.013 11.0241 179.942 11.2585 179.942 11.5163C179.942 11.7116 179.981 11.8874 180.06 12.0436C180.146 12.1921 180.282 12.3288 180.47 12.4538C180.657 12.5788 180.899 12.696 181.196 12.8054C181.501 12.9069 181.876 13.0007 182.321 13.0866C183.235 13.2741 184.052 13.5202 184.771 13.8249C185.489 14.1218 186.06 14.528 186.481 15.0436C186.903 15.5515 187.114 16.2194 187.114 17.0475C187.114 17.61 186.989 18.1257 186.739 18.5944C186.489 19.0632 186.13 19.4733 185.661 19.8249C185.192 20.1686 184.63 20.4382 183.974 20.6335C183.325 20.821 182.595 20.9147 181.782 20.9147C180.603 20.9147 179.603 20.7038 178.782 20.2819C177.97 19.86 177.353 19.3249 176.931 18.6765C176.517 18.0202 176.31 17.3483 176.31 16.6608H179.509C179.524 17.1218 179.642 17.4929 179.86 17.7741C180.087 18.0554 180.372 18.2585 180.716 18.3835C181.067 18.5085 181.446 18.571 181.853 18.571C182.29 18.571 182.653 18.5124 182.942 18.3952C183.231 18.2702 183.45 18.1061 183.599 17.903C183.755 17.6921 183.833 17.4499 183.833 17.1765Z" fill="#5F6F52"/>
<path d="M169.853 20.9147C168.868 20.9147 167.985 20.7585 167.204 20.446C166.423 20.1257 165.759 19.6843 165.212 19.1218C164.673 18.5593 164.259 17.9069 163.97 17.1647C163.681 16.4147 163.536 15.6179 163.536 14.7741V14.3054C163.536 13.3444 163.673 12.4655 163.946 11.6686C164.22 10.8718 164.61 10.1804 165.118 9.59442C165.634 9.00848 166.259 8.55927 166.993 8.24677C167.728 7.92645 168.556 7.7663 169.478 7.7663C170.376 7.7663 171.173 7.91473 171.868 8.21161C172.563 8.50848 173.146 8.93036 173.614 9.47723C174.091 10.0241 174.45 10.6804 174.692 11.446C174.935 12.2038 175.056 13.0475 175.056 13.9772V15.3835H164.978V13.1335H171.739V12.8757C171.739 12.4069 171.653 11.989 171.481 11.6218C171.317 11.2468 171.067 10.9499 170.731 10.7311C170.396 10.5124 169.966 10.403 169.442 10.403C168.997 10.403 168.614 10.5007 168.294 10.696C167.974 10.8913 167.712 11.1647 167.509 11.5163C167.313 11.8679 167.165 12.2819 167.063 12.7585C166.97 13.2272 166.923 13.7429 166.923 14.3054V14.7741C166.923 15.2819 166.993 15.7507 167.134 16.1804C167.282 16.61 167.489 16.9811 167.755 17.2936C168.028 17.6061 168.356 17.8483 168.739 18.0202C169.13 18.1921 169.571 18.278 170.063 18.278C170.673 18.278 171.239 18.1608 171.763 17.9265C172.294 17.6843 172.751 17.321 173.134 16.8366L174.774 18.6179C174.509 19.0007 174.146 19.3679 173.685 19.7194C173.231 20.071 172.685 20.36 172.044 20.5866C171.403 20.8054 170.673 20.9147 169.853 20.9147Z" fill="#5F6F52"/>
<path d="M153.868 10.7077V20.6804H150.493V8.00067H153.657L153.868 10.7077ZM153.376 13.8952H152.462C152.462 12.9577 152.583 12.114 152.825 11.364C153.067 10.6061 153.407 9.96161 153.845 9.43036C154.282 8.8913 154.802 8.48114 155.403 8.19989C156.013 7.91083 156.692 7.7663 157.442 7.7663C158.036 7.7663 158.579 7.85223 159.071 8.02411C159.563 8.19598 159.985 8.46942 160.337 8.84442C160.696 9.21942 160.97 9.71552 161.157 10.3327C161.353 10.9499 161.45 11.7038 161.45 12.5944V20.6804H158.052V12.5827C158.052 12.0202 157.974 11.5827 157.817 11.2702C157.661 10.9577 157.431 10.739 157.126 10.614C156.829 10.4811 156.462 10.4147 156.024 10.4147C155.571 10.4147 155.177 10.5046 154.841 10.6843C154.513 10.864 154.239 11.114 154.021 11.4343C153.81 11.7468 153.649 12.114 153.54 12.5358C153.431 12.9577 153.376 13.4108 153.376 13.8952Z" fill="#5F6F52"/>
<path d="M148.642 8.00067V10.3913H141.259V8.00067H148.642ZM143.087 4.87177H146.462V16.86C146.462 17.2272 146.509 17.5085 146.603 17.7038C146.704 17.8991 146.853 18.0358 147.048 18.114C147.243 18.1843 147.489 18.2194 147.786 18.2194C147.997 18.2194 148.185 18.2116 148.349 18.196C148.521 18.1725 148.665 18.1491 148.782 18.1257L148.794 20.61C148.505 20.7038 148.192 20.778 147.856 20.8327C147.521 20.8874 147.149 20.9147 146.743 20.9147C146.001 20.9147 145.353 20.7936 144.798 20.5515C144.251 20.3015 143.829 19.903 143.532 19.3561C143.235 18.8093 143.087 18.0905 143.087 17.1999V4.87177Z" fill="#5F6F52"/>
<path d="M139.642 8.00067V20.6804H136.255V8.00067H139.642ZM136.044 4.69598C136.044 4.2038 136.216 3.79755 136.56 3.47723C136.903 3.15692 137.364 2.99677 137.942 2.99677C138.513 2.99677 138.97 3.15692 139.313 3.47723C139.665 3.79755 139.841 4.2038 139.841 4.69598C139.841 5.18817 139.665 5.59442 139.313 5.91473C138.97 6.23505 138.513 6.3952 137.942 6.3952C137.364 6.3952 136.903 6.23505 136.56 5.91473C136.216 5.59442 136.044 5.18817 136.044 4.69598Z" fill="#5F6F52"/>
<path d="M126.634 3.61786V20.6804H123.118V3.61786H126.634ZM133.431 10.9069V13.6491H125.673V10.9069H133.431ZM134.251 3.61786V6.37177H125.673V3.61786H134.251Z" fill="#5F6F52"/>
<path d="M115.009 8.00067V10.3913H107.626V8.00067H115.009ZM109.454 4.87177H112.829V16.86C112.829 17.2272 112.876 17.5085 112.97 17.7038C113.071 17.8991 113.22 18.0358 113.415 18.114C113.61 18.1843 113.856 18.2194 114.153 18.2194C114.364 18.2194 114.552 18.2116 114.716 18.196C114.888 18.1725 115.032 18.1491 115.149 18.1257L115.161 20.61C114.872 20.7038 114.56 20.778 114.224 20.8327C113.888 20.8874 113.517 20.9147 113.11 20.9147C112.368 20.9147 111.72 20.7936 111.165 20.5515C110.618 20.3015 110.196 19.903 109.899 19.3561C109.603 18.8093 109.454 18.0905 109.454 17.1999V4.87177Z" fill="#495057"/>
<path d="M102.798 17.821V12.1725C102.798 11.7663 102.731 11.4186 102.599 11.1296C102.466 10.8327 102.259 10.6022 101.978 10.4382C101.704 10.2741 101.349 10.1921 100.911 10.1921C100.536 10.1921 100.212 10.2585 99.9385 10.3913C99.665 10.5163 99.4541 10.6999 99.3057 10.9421C99.1572 11.1765 99.083 11.4538 99.083 11.7741H95.708C95.708 11.235 95.833 10.7233 96.083 10.239C96.333 9.75458 96.6963 9.3288 97.1729 8.96161C97.6494 8.58661 98.2158 8.29364 98.8721 8.0827C99.5361 7.87177 100.278 7.7663 101.099 7.7663C102.083 7.7663 102.958 7.93036 103.724 8.25848C104.489 8.58661 105.091 9.0788 105.528 9.73505C105.974 10.3913 106.196 11.2116 106.196 12.196V17.6218C106.196 18.3171 106.239 18.8874 106.325 19.3327C106.411 19.7702 106.536 20.153 106.7 20.4811V20.6804H103.29C103.126 20.3366 103.001 19.9069 102.915 19.3913C102.837 18.8679 102.798 18.3444 102.798 17.821ZM103.243 12.9577L103.267 14.8679H101.38C100.935 14.8679 100.548 14.9186 100.22 15.0202C99.8916 15.1218 99.6221 15.2663 99.4111 15.4538C99.2002 15.6335 99.0439 15.8444 98.9424 16.0866C98.8486 16.3288 98.8018 16.5944 98.8018 16.8835C98.8018 17.1725 98.8682 17.4343 99.001 17.6686C99.1338 17.8952 99.3252 18.0749 99.5752 18.2077C99.8252 18.3327 100.118 18.3952 100.454 18.3952C100.962 18.3952 101.403 18.2936 101.778 18.0905C102.153 17.8874 102.442 17.6374 102.646 17.3405C102.856 17.0436 102.966 16.7624 102.974 16.4968L103.864 17.9265C103.739 18.2468 103.567 18.5788 103.349 18.9225C103.138 19.2663 102.868 19.5905 102.54 19.8952C102.212 20.1921 101.817 20.4382 101.356 20.6335C100.896 20.821 100.349 20.9147 99.7158 20.9147C98.9111 20.9147 98.1807 20.7546 97.5244 20.4343C96.876 20.1061 96.3604 19.6569 95.9775 19.0866C95.6025 18.5085 95.415 17.8522 95.415 17.1179C95.415 16.4538 95.54 15.864 95.79 15.3483C96.04 14.8327 96.4072 14.3991 96.8916 14.0475C97.3838 13.6882 97.9971 13.4186 98.7314 13.239C99.4658 13.0515 100.317 12.9577 101.286 12.9577H103.243Z" fill="#495057"/>
<path d="M88.8291 20.9147C87.8447 20.9147 86.9619 20.7585 86.1807 20.446C85.3994 20.1257 84.7354 19.6843 84.1885 19.1218C83.6494 18.5593 83.2354 17.9069 82.9463 17.1647C82.6572 16.4147 82.5127 15.6179 82.5127 14.7741V14.3054C82.5127 13.3444 82.6494 12.4655 82.9229 11.6686C83.1963 10.8718 83.5869 10.1804 84.0947 9.59442C84.6104 9.00848 85.2354 8.55927 85.9697 8.24677C86.7041 7.92645 87.5322 7.7663 88.4541 7.7663C89.3525 7.7663 90.1494 7.91473 90.8447 8.21161C91.54 8.50848 92.1221 8.93036 92.5908 9.47723C93.0674 10.0241 93.4268 10.6804 93.6689 11.446C93.9111 12.2038 94.0322 13.0475 94.0322 13.9772V15.3835H83.9541V13.1335H90.7158V12.8757C90.7158 12.4069 90.6299 11.989 90.458 11.6218C90.2939 11.2468 90.0439 10.9499 89.708 10.7311C89.3721 10.5124 88.9424 10.403 88.4189 10.403C87.9736 10.403 87.5908 10.5007 87.2705 10.696C86.9502 10.8913 86.6885 11.1647 86.4854 11.5163C86.29 11.8679 86.1416 12.2819 86.04 12.7585C85.9463 13.2272 85.8994 13.7429 85.8994 14.3054V14.7741C85.8994 15.2819 85.9697 15.7507 86.1104 16.1804C86.2588 16.61 86.4658 16.9811 86.7314 17.2936C87.0049 17.6061 87.333 17.8483 87.7158 18.0202C88.1064 18.1921 88.5479 18.278 89.04 18.278C89.6494 18.278 90.2158 18.1608 90.7393 17.9265C91.2705 17.6843 91.7275 17.321 92.1104 16.8366L93.751 18.6179C93.4854 19.0007 93.1221 19.3679 92.6611 19.7194C92.208 20.071 91.6611 20.36 91.0205 20.5866C90.3799 20.8054 89.6494 20.9147 88.8291 20.9147Z" fill="#495057"/>
<path d="M77.8135 10.7663V20.6804H74.4385V8.00067H77.6143L77.8135 10.7663ZM81.6338 7.91864L81.5752 11.0475C81.4111 11.0241 81.2119 11.0046 80.9775 10.989C80.751 10.9655 80.5439 10.9538 80.3564 10.9538C79.8799 10.9538 79.4658 11.0163 79.1143 11.1413C78.7705 11.2585 78.4814 11.4343 78.2471 11.6686C78.0205 11.903 77.8486 12.1882 77.7314 12.5241C77.6221 12.86 77.5596 13.2429 77.5439 13.6725L76.8643 13.4616C76.8643 12.6413 76.9463 11.8874 77.1104 11.1999C77.2744 10.5046 77.5127 9.89911 77.8252 9.38348C78.1455 8.86786 78.5361 8.46942 78.9971 8.18817C79.458 7.90692 79.9854 7.7663 80.5791 7.7663C80.7666 7.7663 80.958 7.78192 81.1533 7.81317C81.3486 7.83661 81.5088 7.87177 81.6338 7.91864Z" fill="#495057"/>
<path d="M71.8135 11.7624V18.5241C71.5479 18.8444 71.1377 19.1921 70.583 19.5671C70.0283 19.9343 69.3135 20.2507 68.4385 20.5163C67.5635 20.7819 66.5049 20.9147 65.2627 20.9147C64.1611 20.9147 63.1572 20.735 62.251 20.3757C61.3447 20.0085 60.5635 19.4733 59.9072 18.7702C59.2588 18.0671 58.7588 17.2077 58.4072 16.1921C58.0557 15.1686 57.8799 14.0007 57.8799 12.6882V11.6218C57.8799 10.3093 58.0479 9.1413 58.3838 8.11786C58.7275 7.09442 59.2158 6.23114 59.8486 5.52802C60.4814 4.82489 61.2354 4.28973 62.1104 3.92255C62.9854 3.55536 63.958 3.37177 65.0283 3.37177C66.5127 3.37177 67.7314 3.61395 68.6846 4.09833C69.6377 4.57489 70.3643 5.23895 70.8643 6.09052C71.3721 6.93427 71.6846 7.90302 71.8018 8.99677H68.3916C68.3057 8.41864 68.1416 7.91473 67.8994 7.48505C67.6572 7.05536 67.3096 6.71942 66.8564 6.47723C66.4111 6.23505 65.833 6.11395 65.1221 6.11395C64.5361 6.11395 64.0127 6.23505 63.5518 6.47723C63.0986 6.71161 62.7158 7.05927 62.4033 7.5202C62.0908 7.98114 61.8525 8.55145 61.6885 9.23114C61.5244 9.91083 61.4424 10.6999 61.4424 11.5983V12.6882C61.4424 13.5788 61.5283 14.3679 61.7002 15.0554C61.8721 15.735 62.126 16.3093 62.4619 16.778C62.8057 17.239 63.2275 17.5866 63.7275 17.821C64.2275 18.0554 64.8096 18.1725 65.4736 18.1725C66.0283 18.1725 66.4893 18.1257 66.8564 18.0319C67.2314 17.9382 67.5322 17.8249 67.7588 17.6921C67.9932 17.5515 68.1729 17.4186 68.2979 17.2936V14.2702H65.0869V11.7624H71.8135Z" fill="#495057"/>
<path d="M125.221 29.7985V29.6413C125.221 29.1081 125.298 28.6136 125.453 28.1579C125.608 27.6976 125.831 27.2988 126.123 26.9616C126.415 26.6198 126.768 26.3555 127.183 26.1686C127.597 25.9772 128.062 25.8815 128.577 25.8815C129.097 25.8815 129.564 25.9772 129.979 26.1686C130.398 26.3555 130.753 26.6198 131.045 26.9616C131.341 27.2988 131.567 27.6976 131.722 28.1579C131.877 28.6136 131.954 29.1081 131.954 29.6413V29.7985C131.954 30.3317 131.877 30.8262 131.722 31.2819C131.567 31.7377 131.341 32.1364 131.045 32.4782C130.753 32.8155 130.4 33.0798 129.985 33.2712C129.575 33.458 129.11 33.5515 128.591 33.5515C128.071 33.5515 127.604 33.458 127.189 33.2712C126.775 33.0798 126.419 32.8155 126.123 32.4782C125.831 32.1364 125.608 31.7377 125.453 31.2819C125.298 30.8262 125.221 30.3317 125.221 29.7985ZM126.485 29.6413V29.7985C126.485 30.1677 126.529 30.5163 126.615 30.8444C126.702 31.168 126.832 31.4551 127.005 31.7057C127.183 31.9564 127.404 32.1546 127.668 32.3005C127.932 32.4418 128.24 32.5124 128.591 32.5124C128.937 32.5124 129.24 32.4418 129.5 32.3005C129.764 32.1546 129.983 31.9564 130.156 31.7057C130.329 31.4551 130.459 31.168 130.546 30.8444C130.637 30.5163 130.683 30.1677 130.683 29.7985V29.6413C130.683 29.2767 130.637 28.9326 130.546 28.6091C130.459 28.2809 130.327 27.9916 130.149 27.7409C129.976 27.4857 129.757 27.2852 129.493 27.1393C129.233 26.9935 128.928 26.9206 128.577 26.9206C128.231 26.9206 127.925 26.9935 127.661 27.1393C127.401 27.2852 127.183 27.4857 127.005 27.7409C126.832 27.9916 126.702 28.2809 126.615 28.6091C126.529 28.9326 126.485 29.2767 126.485 29.6413Z" fill="#495057"/>
<path d="M123.525 26.0182V33.4147H122.254V26.0182H123.525ZM122.158 24.0563C122.158 23.8513 122.22 23.6781 122.343 23.5368C122.47 23.3955 122.657 23.3249 122.903 23.3249C123.145 23.3249 123.329 23.3955 123.457 23.5368C123.589 23.6781 123.655 23.8513 123.655 24.0563C123.655 24.2523 123.589 24.4209 123.457 24.5622C123.329 24.6989 123.145 24.7673 122.903 24.7673C122.657 24.7673 122.47 24.6989 122.343 24.5622C122.22 24.4209 122.158 24.2523 122.158 24.0563Z" fill="#495057"/>
<path d="M118.911 31.9792V22.9147H120.183V33.4147H119.021L118.911 31.9792ZM113.935 29.7985V29.655C113.935 29.0899 114.003 28.5772 114.14 28.1169C114.281 27.652 114.479 27.2533 114.734 26.9206C114.994 26.5879 115.302 26.3327 115.657 26.155C116.017 25.9727 116.418 25.8815 116.86 25.8815C117.325 25.8815 117.731 25.9636 118.077 26.1276C118.428 26.2871 118.724 26.5218 118.966 26.8317C119.212 27.1371 119.406 27.5062 119.547 27.9391C119.688 28.3721 119.786 28.862 119.841 29.4089V30.0378C119.791 30.5801 119.693 31.0677 119.547 31.5007C119.406 31.9336 119.212 32.3028 118.966 32.6081C118.724 32.9134 118.428 33.1481 118.077 33.3122C117.726 33.4717 117.316 33.5515 116.847 33.5515C116.414 33.5515 116.017 33.458 115.657 33.2712C115.302 33.0843 114.994 32.8223 114.734 32.485C114.479 32.1478 114.281 31.7513 114.14 31.2956C114.003 30.8353 113.935 30.3363 113.935 29.7985ZM115.206 29.655V29.7985C115.206 30.1677 115.243 30.514 115.315 30.8376C115.393 31.1612 115.511 31.446 115.671 31.6921C115.83 31.9382 116.033 32.1319 116.279 32.2731C116.525 32.4099 116.819 32.4782 117.161 32.4782C117.58 32.4782 117.924 32.3893 118.193 32.2116C118.467 32.0339 118.686 31.7992 118.85 31.5075C119.014 31.2158 119.141 30.8991 119.232 30.5573V28.9099C119.178 28.6592 119.098 28.4177 118.993 28.1852C118.893 27.9483 118.761 27.7386 118.597 27.5563C118.437 27.3695 118.239 27.2214 118.002 27.112C117.77 27.0026 117.494 26.9479 117.175 26.9479C116.828 26.9479 116.53 27.0209 116.279 27.1667C116.033 27.308 115.83 27.5039 115.671 27.7546C115.511 28.0007 115.393 28.2878 115.315 28.6159C115.243 28.9395 115.206 29.2858 115.206 29.655Z" fill="#495057"/>
<path d="M111.05 31.7057V26.0182H112.321V33.4147H111.111L111.05 31.7057ZM111.289 30.1472L111.815 30.1335C111.815 30.6257 111.763 31.0814 111.658 31.5007C111.558 31.9154 111.394 32.2754 111.166 32.5807C110.938 32.8861 110.64 33.1253 110.271 33.2985C109.901 33.4671 109.452 33.5515 108.924 33.5515C108.564 33.5515 108.233 33.499 107.933 33.3942C107.636 33.2894 107.381 33.1276 107.167 32.9089C106.953 32.6901 106.786 32.4053 106.668 32.0544C106.554 31.7035 106.497 31.2819 106.497 30.7897V26.0182H107.762V30.8034C107.762 31.1361 107.798 31.4118 107.871 31.6306C107.949 31.8447 108.051 32.0156 108.179 32.1432C108.311 32.2663 108.457 32.3529 108.616 32.403C108.78 32.4531 108.949 32.4782 109.122 32.4782C109.66 32.4782 110.086 32.3757 110.4 32.1706C110.715 31.961 110.94 31.6807 111.077 31.3298C111.218 30.9743 111.289 30.5801 111.289 30.1472Z" fill="#495057"/>
<path d="M105.041 26.0182V26.989H101.042V26.0182H105.041ZM102.396 24.2204H103.66V31.5827C103.66 31.8334 103.699 32.0225 103.776 32.1501C103.854 32.2777 103.954 32.362 104.077 32.403C104.2 32.444 104.332 32.4645 104.474 32.4645C104.578 32.4645 104.688 32.4554 104.802 32.4372C104.92 32.4144 105.009 32.3962 105.068 32.3825L105.075 33.4147C104.975 33.4466 104.843 33.4763 104.679 33.5036C104.519 33.5355 104.326 33.5515 104.098 33.5515C103.788 33.5515 103.503 33.4899 103.243 33.3669C102.983 33.2438 102.776 33.0388 102.621 32.7516C102.471 32.46 102.396 32.0681 102.396 31.5759V24.2204Z" fill="#495057"/>
<path d="M99.1279 30.8991C99.1279 30.6667 99.0915 30.4616 99.0186 30.2839C98.9502 30.1016 98.8271 29.9375 98.6494 29.7917C98.4762 29.6459 98.2347 29.5069 97.9248 29.3747C97.6195 29.2425 97.2321 29.1081 96.7627 28.9714C96.2705 28.8255 95.8262 28.6638 95.4297 28.486C95.0332 28.3037 94.6937 28.0964 94.4111 27.864C94.1286 27.6315 93.9121 27.3649 93.7617 27.0641C93.6113 26.7634 93.5361 26.4193 93.5361 26.0319C93.5361 25.6446 93.6159 25.2868 93.7754 24.9587C93.9349 24.6306 94.1628 24.3457 94.459 24.1042C94.7598 23.8581 95.1175 23.6667 95.5322 23.53C95.9469 23.3932 96.4095 23.3249 96.9199 23.3249C97.6673 23.3249 98.3008 23.4684 98.8203 23.7556C99.3444 24.0381 99.7432 24.4095 100.017 24.8698C100.29 25.3255 100.427 25.8132 100.427 26.3327H99.1143C99.1143 25.959 99.0345 25.6286 98.875 25.3415C98.7155 25.0498 98.474 24.822 98.1504 24.6579C97.8268 24.4893 97.4167 24.405 96.9199 24.405C96.4505 24.405 96.0632 24.4756 95.7578 24.6169C95.4525 24.7582 95.2246 24.9496 95.0742 25.1911C94.9284 25.4326 94.8555 25.7084 94.8555 26.0182C94.8555 26.2279 94.8988 26.4193 94.9854 26.5925C95.0765 26.7611 95.2155 26.9183 95.4023 27.0641C95.5938 27.21 95.8353 27.3444 96.127 27.4675C96.4232 27.5905 96.7764 27.709 97.1865 27.8229C97.7516 27.9824 98.2393 28.1602 98.6494 28.3561C99.0596 28.5521 99.3968 28.7731 99.6611 29.0192C99.93 29.2608 100.128 29.5365 100.256 29.8464C100.388 30.1517 100.454 30.4981 100.454 30.8854C100.454 31.291 100.372 31.6579 100.208 31.986C100.044 32.3141 99.8092 32.5944 99.5039 32.8268C99.1986 33.0593 98.8317 33.2393 98.4033 33.3669C97.9795 33.4899 97.5055 33.5515 96.9814 33.5515C96.5212 33.5515 96.0677 33.4877 95.6211 33.36C95.179 33.2324 94.7757 33.041 94.4111 32.7858C94.0511 32.5306 93.7617 32.2162 93.543 31.8425C93.3288 31.4642 93.2217 31.0267 93.2217 30.53H94.5342C94.5342 30.8718 94.6003 31.1657 94.7324 31.4118C94.8646 31.6533 95.0446 31.8539 95.2725 32.0134C95.5049 32.1729 95.7669 32.2914 96.0586 32.3688C96.3548 32.4418 96.6624 32.4782 96.9814 32.4782C97.4417 32.4782 97.8314 32.4144 98.1504 32.2868C98.4694 32.1592 98.7109 31.9769 98.875 31.7399C99.0436 31.503 99.1279 31.2227 99.1279 30.8991Z" fill="#495057"/>
<path d="M86.9053 32.1501V28.3425C86.9053 28.0508 86.846 27.7979 86.7275 27.5837C86.6136 27.3649 86.4404 27.1963 86.208 27.0778C85.9756 26.9593 85.6885 26.9001 85.3467 26.9001C85.0277 26.9001 84.7474 26.9548 84.5059 27.0641C84.2689 27.1735 84.082 27.3171 83.9453 27.4948C83.8132 27.6725 83.7471 27.864 83.7471 28.069H82.4824C82.4824 27.8047 82.5508 27.5427 82.6875 27.2829C82.8242 27.0231 83.0202 26.7884 83.2754 26.5788C83.5352 26.3646 83.8451 26.196 84.2051 26.0729C84.5697 25.9453 84.9753 25.8815 85.4219 25.8815C85.9596 25.8815 86.4336 25.9727 86.8438 26.155C87.2585 26.3373 87.582 26.613 87.8145 26.9821C88.0514 27.3467 88.1699 27.8047 88.1699 28.3561V31.8015C88.1699 32.0475 88.1904 32.3096 88.2314 32.5876C88.277 32.8656 88.3431 33.1048 88.4297 33.3054V33.4147H87.1104C87.0465 33.2689 86.9964 33.0752 86.96 32.8337C86.9235 32.5876 86.9053 32.3597 86.9053 32.1501ZM87.124 28.9304L87.1377 29.819H85.8594C85.4993 29.819 85.1781 29.8487 84.8955 29.9079C84.613 29.9626 84.376 30.0469 84.1846 30.1608C83.9932 30.2748 83.8473 30.4183 83.7471 30.5915C83.6468 30.7601 83.5967 30.9584 83.5967 31.1862C83.5967 31.4186 83.6491 31.6306 83.7539 31.822C83.8587 32.0134 84.016 32.166 84.2256 32.28C84.4398 32.3893 84.7018 32.444 85.0117 32.444C85.3991 32.444 85.7409 32.362 86.0371 32.1979C86.3333 32.0339 86.568 31.8334 86.7412 31.5964C86.9189 31.3594 87.0146 31.1293 87.0283 30.9059L87.5684 31.5143C87.5365 31.7057 87.4499 31.9177 87.3086 32.1501C87.1673 32.3825 86.9782 32.6058 86.7412 32.82C86.5088 33.0296 86.2308 33.2051 85.9072 33.3464C85.5882 33.4831 85.2282 33.5515 84.8271 33.5515C84.3258 33.5515 83.8861 33.4535 83.5078 33.2575C83.1341 33.0615 82.8424 32.7995 82.6328 32.4714C82.4277 32.1387 82.3252 31.7673 82.3252 31.3571C82.3252 30.9606 82.4027 30.612 82.5576 30.3112C82.7126 30.0059 82.9359 29.753 83.2275 29.5524C83.5192 29.3474 83.8701 29.1924 84.2803 29.0876C84.6904 28.9828 85.1484 28.9304 85.6543 28.9304H87.124Z" fill="#495057"/>
<path d="M79.4746 26.0182H80.623V33.2575C80.623 33.9092 80.4909 34.4652 80.2266 34.9255C79.9622 35.3858 79.5931 35.7344 79.1191 35.9714C78.6497 36.2129 78.1074 36.3337 77.4922 36.3337C77.237 36.3337 76.9362 36.2927 76.5898 36.2106C76.248 36.1332 75.9108 35.9987 75.5781 35.8073C75.25 35.6205 74.9743 35.3675 74.751 35.0485L75.4141 34.2966C75.724 34.6703 76.0475 34.93 76.3848 35.0759C76.7266 35.2217 77.0638 35.2946 77.3965 35.2946C77.7975 35.2946 78.1439 35.2194 78.4355 35.069C78.7272 34.9186 78.9528 34.6953 79.1123 34.3991C79.2764 34.1074 79.3584 33.7474 79.3584 33.319V27.6452L79.4746 26.0182ZM74.3818 29.7985V29.655C74.3818 29.0899 74.4479 28.5772 74.5801 28.1169C74.7168 27.652 74.9105 27.2533 75.1611 26.9206C75.4163 26.5879 75.724 26.3327 76.084 26.155C76.444 25.9727 76.8496 25.8815 77.3008 25.8815C77.7656 25.8815 78.1712 25.9636 78.5176 26.1276C78.8685 26.2871 79.1647 26.5218 79.4062 26.8317C79.6523 27.1371 79.846 27.5062 79.9873 27.9391C80.1286 28.3721 80.2266 28.862 80.2812 29.4089V30.0378C80.2311 30.5801 80.1331 31.0677 79.9873 31.5007C79.846 31.9336 79.6523 32.3028 79.4062 32.6081C79.1647 32.9134 78.8685 33.1481 78.5176 33.3122C78.1667 33.4717 77.7565 33.5515 77.2871 33.5515C76.8451 33.5515 76.444 33.458 76.084 33.2712C75.7285 33.0843 75.4232 32.8223 75.168 32.485C74.9128 32.1478 74.7168 31.7513 74.5801 31.2956C74.4479 30.8353 74.3818 30.3363 74.3818 29.7985ZM75.6465 29.655V29.7985C75.6465 30.1677 75.6829 30.514 75.7559 30.8376C75.8333 31.1612 75.9495 31.446 76.1045 31.6921C76.264 31.9382 76.4668 32.1319 76.7129 32.2731C76.959 32.4099 77.2529 32.4782 77.5947 32.4782C78.014 32.4782 78.3604 32.3893 78.6338 32.2116C78.9072 32.0339 79.1237 31.7992 79.2832 31.5075C79.4473 31.2158 79.5749 30.8991 79.666 30.5573V28.9099C79.6159 28.6592 79.5384 28.4177 79.4336 28.1852C79.3333 27.9483 79.2012 27.7386 79.0371 27.5563C78.8776 27.3695 78.6794 27.2214 78.4424 27.112C78.2054 27.0026 77.9274 26.9479 77.6084 26.9479C77.262 26.9479 76.9635 27.0209 76.7129 27.1667C76.4668 27.308 76.264 27.5039 76.1045 27.7546C75.9495 28.0007 75.8333 28.2878 75.7559 28.6159C75.6829 28.9395 75.6465 29.2858 75.6465 29.655Z" fill="#495057"/>
<path d="M66.3633 29.7985V29.6413C66.3633 29.1081 66.4408 28.6136 66.5957 28.1579C66.7507 27.6976 66.974 27.2988 67.2656 26.9616C67.5573 26.6198 67.9105 26.3555 68.3252 26.1686C68.7399 25.9772 69.2048 25.8815 69.7197 25.8815C70.2393 25.8815 70.7064 25.9772 71.1211 26.1686C71.5404 26.3555 71.8958 26.6198 72.1875 26.9616C72.4837 27.2988 72.7093 27.6976 72.8643 28.1579C73.0192 28.6136 73.0967 29.1081 73.0967 29.6413V29.7985C73.0967 30.3317 73.0192 30.8262 72.8643 31.2819C72.7093 31.7377 72.4837 32.1364 72.1875 32.4782C71.8958 32.8155 71.5426 33.0798 71.1279 33.2712C70.7178 33.458 70.2529 33.5515 69.7334 33.5515C69.2139 33.5515 68.7467 33.458 68.332 33.2712C67.9173 33.0798 67.5618 32.8155 67.2656 32.4782C66.974 32.1364 66.7507 31.7377 66.5957 31.2819C66.4408 30.8262 66.3633 30.3317 66.3633 29.7985ZM67.6279 29.6413V29.7985C67.6279 30.1677 67.6712 30.5163 67.7578 30.8444C67.8444 31.168 67.9743 31.4551 68.1475 31.7057C68.3252 31.9564 68.5462 32.1546 68.8105 32.3005C69.0749 32.4418 69.3825 32.5124 69.7334 32.5124C70.0798 32.5124 70.3828 32.4418 70.6426 32.3005C70.9069 32.1546 71.1257 31.9564 71.2988 31.7057C71.472 31.4551 71.6019 31.168 71.6885 30.8444C71.7796 30.5163 71.8252 30.1677 71.8252 29.7985V29.6413C71.8252 29.2767 71.7796 28.9326 71.6885 28.6091C71.6019 28.2809 71.4697 27.9916 71.292 27.7409C71.1188 27.4857 70.9001 27.2852 70.6357 27.1393C70.376 26.9935 70.0706 26.9206 69.7197 26.9206C69.3734 26.9206 69.068 26.9935 68.8037 27.1393C68.5439 27.2852 68.3252 27.4857 68.1475 27.7409C67.9743 27.9916 67.8444 28.2809 67.7578 28.6091C67.6712 28.9326 67.6279 29.2767 67.6279 29.6413Z" fill="#495057"/>
<path d="M59.3906 23.4616L61.9746 28.4587L64.5654 23.4616H66.0625L62.6309 29.696V33.4147H61.3115V29.696L57.8799 23.4616H59.3906Z" fill="#495057"/>
</svg>
