<svg width="21" height="22" viewBox="0 0 21 22" fill="none" xmlns="http://www.w3.org/2000/svg">
<path d="M11.4881 0.836731C12.2482 0.833814 13.0084 0.841454 13.7683 0.859648L13.9704 0.866939C14.2037 0.875273 14.4339 0.885689 14.7121 0.898189C15.8204 0.950273 16.5766 1.12527 17.2402 1.38256C17.9277 1.64715 18.5069 2.00548 19.086 2.58465C19.6156 3.10507 20.0254 3.73459 20.2871 4.42944C20.5444 5.09298 20.7194 5.85027 20.7714 6.95861C20.7839 7.23569 20.7943 7.46694 20.8027 7.70027L20.8089 7.90236C20.8274 8.66193 20.8354 9.42173 20.8329 10.1815L20.8339 10.9586V12.3232C20.8365 13.0833 20.8285 13.8435 20.81 14.6034L20.8037 14.8055C20.7954 15.0388 20.785 15.269 20.7725 15.5471C20.7204 16.6555 20.5433 17.4117 20.2871 18.0753C20.0263 18.7709 19.6163 19.4009 19.086 19.9211C18.5651 20.4506 17.9353 20.8604 17.2402 21.1221C16.5766 21.3794 15.8204 21.5544 14.7121 21.6065C14.4339 21.619 14.2037 21.6294 13.9704 21.6378L13.7683 21.644C13.0084 21.6625 12.2482 21.6705 11.4881 21.668L10.711 21.669H9.34748C8.58733 21.6716 7.82719 21.6636 7.06727 21.6451L6.86518 21.6388C6.6179 21.6299 6.37068 21.6194 6.12352 21.6076C5.01518 21.5555 4.25893 21.3784 3.59435 21.1221C2.89923 20.861 2.2696 20.4511 1.74956 19.9211C1.2194 19.4006 0.809168 18.7706 0.547476 18.0753C0.290184 17.4117 0.115184 16.6555 0.063101 15.5471C0.0514998 15.3 0.0410831 15.0528 0.031851 14.8055L0.0266428 14.6034C0.00743821 13.8435 -0.00124328 13.0833 0.000601042 12.3232V10.1815C-0.00230621 9.42173 0.00533349 8.66194 0.0235178 7.90236L0.0308094 7.70027C0.0391428 7.46694 0.0495594 7.23569 0.0620594 6.95861C0.114143 5.84923 0.289143 5.09402 0.546434 4.42944C0.808281 3.73425 1.21931 3.1049 1.7506 2.58569C2.27028 2.05522 2.89952 1.64462 3.59435 1.38256C4.25893 1.12527 5.01414 0.950273 6.12352 0.898189L6.86518 0.866939L7.06727 0.861731C7.82683 0.842536 8.58663 0.833855 9.34643 0.835689L11.4881 0.836731ZM10.4173 6.04402C9.03593 6.04402 7.71117 6.59276 6.73442 7.56951C5.75767 8.54626 5.20893 9.87102 5.20893 11.2524C5.20893 12.6337 5.75767 13.9585 6.73442 14.9352C7.71117 15.912 9.03593 16.4607 10.4173 16.4607C11.7986 16.4607 13.1234 15.912 14.1001 14.9352C15.0769 13.9585 15.6256 12.6337 15.6256 11.2524C15.6256 9.87102 15.0769 8.54626 14.1001 7.56951C13.1234 6.59276 11.7986 6.04402 10.4173 6.04402ZM10.4173 8.12736C10.8276 8.12729 11.234 8.20805 11.6132 8.36503C11.9924 8.52202 12.3369 8.75214 12.6271 9.04228C12.9174 9.33241 13.1476 9.67687 13.3047 10.056C13.4618 10.4351 13.5427 10.8415 13.5428 11.2518C13.5429 11.6622 13.4621 12.0686 13.3051 12.4478C13.1481 12.8269 12.918 13.1715 12.6279 13.4617C12.3377 13.7519 11.9933 13.9822 11.6142 14.1393C11.235 14.2964 10.8287 14.3773 10.4183 14.3774C9.58951 14.3774 8.79465 14.0481 8.2086 13.4621C7.62255 12.876 7.29331 12.0812 7.29331 11.2524C7.29331 10.4236 7.62255 9.6287 8.2086 9.04265C8.79465 8.4566 9.58951 8.12736 10.4183 8.12736M15.8871 4.48152C15.551 4.49497 15.2332 4.63793 15.0002 4.88045C14.7672 5.12297 14.637 5.44625 14.637 5.78256C14.637 6.11888 14.7672 6.44216 15.0002 6.68468C15.2332 6.9272 15.551 7.07016 15.8871 7.08361C16.2324 7.08361 16.5636 6.94642 16.8078 6.70223C17.052 6.45805 17.1891 6.12686 17.1891 5.78152C17.1891 5.43619 17.052 5.105 16.8078 4.86081C16.5636 4.61662 16.2324 4.47944 15.8871 4.47944" fill="#5F6F52"/>
</svg>
