<svg width="100%" height="auto" preserveAspectRatio="none" viewBox="0 0 1920 181" fill="none" xmlns="http://www.w3.org/2000/svg">
<path fill-rule="evenodd" clip-rule="evenodd" d="M0 2.36266L53 36.3369C107 69.7253 213 137.674 320 165.79C427 193.907 533 182.192 640 137.674C747 92.57 853 13.4921 960 2.36266C1067 -8.76683 1173 47.4663 1280 53.324C1387 58.5958 1493 13.4921 1600 25.2074C1707 36.3369 1813 103.7 1867 137.674L1920 171.062V0H1867C1813 0 1707 0 1600 0C1493 0 1387 0 1280 0C1173 0 1067 0 960 0C853 0 747 0 640 0C533 0 427 0 320 0C213 0 107 0 53 0H0V2.36266Z" fill="#F6F9FC"/>
</svg>
